<?xml version="1.0" encoding="utf-8"?>
<!-- Generator: Adobe Illustrator 26.2.1, SVG Export Plug-In . SVG Version: 6.00 Build 0)  -->
<svg version="1.1" id="Layer_1" xmlns="http://www.w3.org/2000/svg" xmlns:xlink="http://www.w3.org/1999/xlink" x="0px" y="0px"
	 viewBox="0 0 188 80" style="enable-background:new 0 0 188 80;" xml:space="preserve">
<style type="text/css">
	.st0{fill:#F9F8F9;}
</style>
<g>
	<path class="st0" d="M114.6,35.7c-2.3-2.1-5.1-3.1-8.4-3.1c-3.2,0-6,1-8.4,3.1c-2.3,2-3.5,4.8-3.5,8.4c0,3.6,1.2,6.4,3.5,8.5
		c2.3,2,5.1,3,8.4,3c3.3,0,6.1-1,8.4-3c2.4-2.1,3.6-4.9,3.6-8.5C118.2,40.6,117,37.8,114.6,35.7z M101.8,48.8
		c-1.2-1.2-1.9-2.7-1.9-4.6c0-1.9,0.6-3.4,1.9-4.6c1.2-1.2,2.7-1.8,4.4-1.8s3.2,0.6,4.4,1.8c1.3,1.2,1.9,2.7,1.9,4.6
		c0,1.9-0.6,3.4-1.9,4.6c-1.2,1.2-2.7,1.7-4.4,1.7S103,49.9,101.8,48.8z"/>
	<path class="st0" d="M126.5,55.1V24.9h-5.5v30.1H126.5z"/>
	<path class="st0" d="M144.4,33.3v12c0,2.9-1.6,4.8-4.5,4.8c-3,0-4.6-1.9-4.6-4.8v-12h-5.5v12.9c0,5,3.2,9.5,10.1,9.5h0.1
		c6.9,0,10.1-4.5,10.1-9.5V33.3H144.4z"/>
	<path class="st0" d="M88.4,33.3L82.9,48l-5.5-14.8h-5.9l8.8,21.8h5.2l8.8-21.8C94.3,33.3,88.4,33.3,88.4,33.3z"/>
	<path class="st0" d="M71.5,43.6c0-3.2-1-5.7-3-7.8c-2-2.1-4.5-3.1-7.7-3.1c-3.2,0-5.9,1.1-8.2,3.3c-2.2,2.2-3.3,4.9-3.3,8.3
		s1.1,6.1,3.3,8.3c2.2,2.2,4.8,3.2,8,3.2c4.8,0,8.2-2.1,10.2-6.4l-4.1-2.4c-1.4,2.7-3.3,4-6,4c-3.3,0-5.6-2.1-6-5.4h16.8V43.6
		L71.5,43.6z M60.7,36.9c3.1,0,5.2,1.8,5.7,4.6H54.7C55.5,38.8,57.8,36.9,60.7,36.9z"/>
	<path class="st0" d="M49.4,55.1l-7.4-13c4.7-1.7,7-4.7,7-9c0-5.3-4.2-8.7-10.9-8.7H24.9v30.7h5.8V42.6h4.9l7.1,12.5H49.4z M38,29.4
		c3.4,0,5.1,1.4,5.1,4s-1.7,4-5.1,4h-7.4v-8.1H38z"/>
	<path class="st0" d="M159.3,55.7c-3.6,0-6.4-2.9-6.4-6.4V27.4h5.5v5.9h4.7v4.5h-4.7v11.1c0,1.1,0.9,1.9,1.9,1.9h2.8v4.9H159.3z"/>
</g>
</svg>
